<svg width="8" height="144" viewBox="0 0 8 144" fill="none" xmlns="http://www.w3.org/2000/svg">
<path d="M4.2891 0.646447C4.09384 0.451184 3.77726 0.451184 3.58199 0.646447L0.400013 3.82843C0.204751 4.02369 0.204751 4.34027 0.400013 4.53553C0.595275 4.7308 0.911857 4.7308 1.10712 4.53553L3.93555 1.70711L6.76397 4.53553C6.95924 4.7308 7.27582 4.7308 7.47108 4.53553C7.66634 4.34027 7.66634 4.02369 7.47108 3.82843L4.2891 0.646447ZM3.58199 143.354C3.77725 143.549 4.09383 143.549 4.28909 143.354L7.47107 140.172C7.66634 139.976 7.66634 139.66 7.47107 139.464C7.27581 139.269 6.95923 139.269 6.76397 139.464L3.93554 142.293L1.10711 139.464C0.911852 139.269 0.595269 139.269 0.400007 139.464C0.204745 139.66 0.204745 139.976 0.400007 140.172L3.58199 143.354ZM3.43555 1L3.43554 143L4.43554 143L4.43555 1L3.43555 1Z" fill="#5F5F5F"/>
</svg>
