<svg width="137" height="8" viewBox="0 0 137 8" fill="none" xmlns="http://www.w3.org/2000/svg">
<path d="M136.354 4.35355C136.549 4.15829 136.549 3.84171 136.354 3.64645L133.172 0.464466C132.976 0.269204 132.66 0.269204 132.464 0.464466C132.269 0.659728 132.269 0.97631 132.464 1.17157L135.293 4L132.464 6.82843C132.269 7.02369 132.269 7.34027 132.464 7.53553C132.66 7.7308 132.976 7.7308 133.172 7.53553L136.354 4.35355ZM0.646454 3.64643C0.451187 3.8417 0.451187 4.15828 0.646454 4.35354L3.82843 7.53552C4.0237 7.73078 4.34027 7.73078 4.53554 7.53552C4.73079 7.34026 4.73079 7.02368 4.53554 6.82842L1.70711 3.99999L4.53554 1.17156C4.73079 0.976299 4.73079 0.659717 4.53554 0.464455C4.34027 0.269192 4.0237 0.269192 3.82843 0.464455L0.646454 3.64643ZM136 3.5L1 3.49999L1 4.49999L136 4.5L136 3.5Z" fill="#5F5F5F"/>
</svg>
