<svg width="32" height="31" viewBox="0 0 32 31" fill="none" xmlns="http://www.w3.org/2000/svg">
<path opacity="0.4" d="M13.6847 26.5127C16.721 26.5121 19.6697 25.5275 22.0615 23.7156L29.5812 31L32 28.6569L24.4802 21.3726C26.3516 19.0555 27.3687 16.1983 27.3694 13.2564C27.3694 5.94714 21.2301 0 13.6847 0C6.13931 0 0 5.94714 0 13.2564C0 20.5656 6.13931 26.5127 13.6847 26.5127ZM13.6847 3.31409C19.3451 3.31409 23.9483 7.7732 23.9483 13.2564C23.9483 18.7395 19.3451 23.1986 13.6847 23.1986C8.02438 23.1986 3.42118 18.7395 3.42118 13.2564C3.42118 7.7732 8.02438 3.31409 13.6847 3.31409Z" fill="#5F5F5F"/>
</svg>
