<svg width="124" height="175" viewBox="0 0 124 175" fill="none" xmlns="http://www.w3.org/2000/svg">
<path d="M23.0335 170.715C37.9372 173.425 45.5019 161.909 47.4214 155.812C72.0802 178.303 96.7617 172.635 106.02 166.651C119.569 160.689 122.053 145.876 121.601 139.553C121.601 125.733 106.923 116.633 99.5844 113.81C115.572 102.429 117.762 87.39 116.859 81.2931C115.504 49.3178 86.0355 35.227 71.4705 32.1785C35.4307 22.9653 17.1623 49.792 12.5331 64.3569C-0.473754 100.126 2.59731 137.746 5.75871 152.086C10.0943 167.531 19.0817 170.941 23.0335 170.715Z" fill="url(#paint0_linear_1501_10769)" stroke="#FF8A00" stroke-width="4.06465" stroke-linecap="round"/>
<path d="M65.0352 126.681C71.8096 127.358 92.1328 120.245 102.294 111.777" stroke="#FF8A00" stroke-width="4.06465" stroke-linecap="round"/>
<circle cx="56.567" cy="30.1461" r="28.1138" fill="#FF8A00" stroke="#FF8A00" stroke-width="4.06465" stroke-linecap="round"/>
<path d="M16.2598 88.4058C23.1471 96.1963 40.9864 107.374 68.4228 92.8091" stroke="#FF8A00" stroke-width="4.06465" stroke-linecap="round"/>
<path d="M43.3564 26.4201L49.1147 41.6626L70.7928 18.9683" stroke="white" stroke-width="5.41953" stroke-linecap="round" stroke-linejoin="round"/>
<path d="M40.8814 70.0519C39.8985 75.1025 37.5645 79.307 34.6867 82.0419C31.805 84.7804 28.5241 85.9359 25.4825 85.344C22.4409 84.752 19.8328 82.4503 18.1886 78.831C16.5465 75.2164 15.9597 70.4435 16.9427 65.3929C17.9257 60.3423 20.2596 56.1378 23.1375 53.4029C26.0191 50.6644 29.3 49.5089 32.3416 50.1008C35.3833 50.6928 37.9913 52.9945 39.6356 56.6138C41.2776 60.2284 41.8644 65.0014 40.8814 70.0519Z" fill="white" stroke="#FF8A00" stroke-width="4.06465"/>
<path d="M30.0501 67.4061C29.5161 70.1498 28.2542 72.3954 26.7468 73.828C25.2355 75.2641 23.6233 75.774 22.2239 75.5016C20.8245 75.2293 19.5212 74.152 18.6588 72.2539C17.7987 70.3605 17.4711 67.8056 18.0051 65.0619C18.5391 62.3182 19.801 60.0726 21.3084 58.6401C22.8196 57.2039 24.4318 56.694 25.8313 56.9664C27.2307 57.2388 28.534 58.316 29.3963 60.2142C30.2565 62.1075 30.5841 64.6624 30.0501 67.4061Z" fill="#FF8A00" stroke="#FF8A00" stroke-width="4.06465"/>
<path d="M67.9791 74.1169C66.9961 79.1674 64.6622 83.372 61.7843 86.1068C58.9027 88.8453 55.6218 90.0009 52.5802 89.4089C49.5385 88.8169 46.9305 86.5153 45.2862 82.8959C43.6441 79.2814 43.0574 74.5084 44.0404 69.4578C45.0233 64.4073 47.3573 60.2027 50.2351 57.4679C53.1168 54.7294 56.3977 53.5738 59.4393 54.1658C62.4809 54.7578 65.0889 57.0594 66.7332 60.6788C68.3753 64.2933 68.962 69.0663 67.9791 74.1169Z" fill="white" stroke="#FF8A00" stroke-width="4.06465"/>
<path d="M58.5238 72.2838C57.9635 75.1629 56.6387 77.5235 55.0508 79.0325C53.4591 80.5451 51.749 81.0928 50.2532 80.8017C48.7574 80.5106 47.3775 79.3614 46.4693 77.3623C45.5632 75.3679 45.2204 72.6828 45.7808 69.8037C46.3411 66.9246 47.6659 64.564 49.2538 63.055C50.8455 61.5424 52.5556 60.9947 54.0514 61.2858C55.5473 61.5769 56.9271 62.7261 57.8354 64.7252C58.7414 66.7196 59.0842 69.4047 58.5238 72.2838Z" fill="#FF8A00" stroke="#FF8A00" stroke-width="4.06465"/>
<defs>
<linearGradient id="paint0_linear_1501_10769" x1="36.5823" y1="117.197" x2="157.506" y2="266.573" gradientUnits="userSpaceOnUse">
<stop offset="0.0833333" stop-color="white"/>
<stop offset="1" stop-color="#E5E20A"/>
</linearGradient>
</defs>
</svg>
