<svg width="31" height="31" viewBox="0 0 31 31" fill="none" xmlns="http://www.w3.org/2000/svg">
<path id="Vector" d="M30.5403 16.2378L24.7285 18.9394C22.1858 20.1199 20.1426 22.1631 18.9394 24.7285L16.2378 30.5403C15.9427 31.1532 15.08 31.1532 14.7849 30.5403L12.0833 24.7285C10.9028 22.1858 8.85958 20.1426 6.29421 18.9394L0.459722 16.2378C-0.153241 15.9427 -0.153241 15.08 0.459722 14.7849L6.27151 12.0833C8.81417 10.9028 10.8574 8.85958 12.0606 6.29421L14.7849 0.459722C15.08 -0.153241 15.9427 -0.153241 16.2378 0.459722L18.9394 6.27151C20.1199 8.81417 22.1631 10.8574 24.7285 12.0606L30.5403 14.7622C31.1532 15.0573 31.1532 15.92 30.5403 16.2151V16.2378Z" fill="#FF8A00"/>
</svg>
