<svg width="130" height="177" viewBox="0 0 130 177" fill="none" xmlns="http://www.w3.org/2000/svg">
<path d="M23.9799 172.654C39.5877 175.492 47.5099 163.432 49.52 157.047C75.3438 180.6 101.191 174.665 110.887 168.398C125.076 162.155 127.677 146.641 127.204 140.02C127.204 125.547 111.833 116.017 104.147 113.061C120.89 101.142 123.184 85.3926 122.238 79.0076C120.819 45.5217 89.9584 30.7651 74.7053 27.5726C36.9628 17.9241 17.8314 46.0182 12.9835 61.2713C-0.637867 98.7301 2.57829 138.128 5.88904 153.145C10.4295 169.32 19.8415 172.891 23.9799 172.654Z" fill="url(#paint0_linear_1501_10742)" stroke="#FF8A00" stroke-width="4.25668" stroke-linecap="round"/>
<path d="M67.9656 126.54C75.06 127.25 96.3434 119.801 106.985 110.933" stroke="#FF8A00" stroke-width="4.25668" stroke-linecap="round"/>
<mask id="path-3-inside-1_1501_10742" fill="white">
<path fill-rule="evenodd" clip-rule="evenodd" d="M29.455 87.1702C37.335 88.3926 45.5787 80.0878 47.868 68.6209C50.1572 57.1539 45.625 46.8671 37.7451 45.6446C29.8651 44.4221 21.6214 52.7269 19.3322 64.1939C18.3943 68.8916 18.6013 73.3911 19.7143 77.1506C18.6754 77.486 17.6964 78.0473 16.8611 78.835C13.9371 81.592 13.8799 86.0772 16.7332 88.8531C19.5865 91.6289 24.2698 91.6443 27.1937 88.8873C27.7924 88.3229 28.2709 87.6859 28.6288 87.0061C28.8999 87.072 29.1754 87.1268 29.455 87.1702Z"/>
</mask>
<path fill-rule="evenodd" clip-rule="evenodd" d="M29.455 87.1702C37.335 88.3926 45.5787 80.0878 47.868 68.6209C50.1572 57.1539 45.625 46.8671 37.7451 45.6446C29.8651 44.4221 21.6214 52.7269 19.3322 64.1939C18.3943 68.8916 18.6013 73.3911 19.7143 77.1506C18.6754 77.486 17.6964 78.0473 16.8611 78.835C13.9371 81.592 13.8799 86.0772 16.7332 88.8531C19.5865 91.6289 24.2698 91.6443 27.1937 88.8873C27.7924 88.3229 28.2709 87.6859 28.6288 87.0061C28.8999 87.072 29.1754 87.1268 29.455 87.1702Z" fill="white"/>
<path d="M47.868 68.6209L43.6668 67.9537L47.868 68.6209ZM29.455 87.1702L30.2739 82.9907L30.2739 82.9907L29.455 87.1702ZM37.7451 45.6446L38.564 41.4652L37.7451 45.6446ZM19.3322 64.1939L15.1309 63.5268L19.3322 64.1939ZM19.7143 77.1506L20.9054 81.1667L25.0177 79.8393L23.8291 75.8244L19.7143 77.1506ZM16.8611 78.835L13.9648 75.8283L13.9648 75.8283L16.8611 78.835ZM16.7332 88.8531L19.7966 85.7852L19.7966 85.7852L16.7332 88.8531ZM27.1937 88.8873L24.2975 85.8806L27.1937 88.8873ZM28.6288 87.0061L29.7982 82.8963L26.4661 82.0866L24.8442 85.1672L28.6288 87.0061ZM43.6668 67.9537C42.6679 72.957 40.399 77.0878 37.7551 79.7513C35.0916 82.4345 32.4202 83.3237 30.2739 82.9907L28.6361 91.3496C34.3698 92.2391 39.7603 89.5871 43.7609 85.5569C47.7812 81.5068 50.7788 75.7517 52.0692 69.288L43.6668 67.9537ZM36.9262 49.8241C39.0671 50.1562 41.223 51.7881 42.682 55.0998C44.1317 58.3901 44.6657 62.95 43.6668 67.9537L52.0692 69.288C53.3595 62.8248 52.772 56.5078 50.5579 51.4824C48.3532 46.4783 44.3031 42.3555 38.564 41.4652L36.9262 49.8241ZM23.5334 64.861C24.5322 59.8577 26.8011 55.727 29.445 53.0635C32.1085 50.3803 34.7799 49.4911 36.9262 49.8241L38.564 41.4652C32.8303 40.5757 27.4399 43.2277 23.4392 47.2579C19.4189 51.308 16.4213 57.0631 15.1309 63.5268L23.5334 64.861ZM23.8291 75.8244C22.9213 72.758 22.7178 68.9461 23.5334 64.861L15.1309 63.5268C14.0708 68.837 14.2814 74.0242 15.5995 78.4768L23.8291 75.8244ZM19.7573 81.8418C20.0862 81.5316 20.4752 81.3056 20.9054 81.1667L18.5232 73.1345C16.8757 73.6663 15.3066 74.5631 13.9648 75.8283L19.7573 81.8418ZM19.7966 85.7852C18.549 84.5715 18.7023 82.8365 19.7573 81.8418L13.9648 75.8283C9.17197 80.3474 9.2107 87.5829 13.6697 91.921L19.7966 85.7852ZM24.2975 85.8806C23.1576 86.9554 21.1097 87.0627 19.7966 85.7852L13.6697 91.9209C18.0632 96.1952 25.382 96.3332 30.09 91.8941L24.2975 85.8806ZM24.8442 85.1672C24.7133 85.4158 24.5345 85.6571 24.2975 85.8806L30.09 91.8941C31.0503 90.9886 31.8284 89.9561 32.4134 88.845L24.8442 85.1672ZM30.2739 82.9907C30.1125 82.9657 29.9539 82.9341 29.7982 82.8963L27.4594 91.1159C27.8458 91.2098 28.2383 91.2879 28.6361 91.3496L30.2739 82.9907Z" fill="#FF8A00" mask="url(#path-3-inside-1_1501_10742)"/>
<path d="M37.2778 67.0554C36.009 73.4108 31.226 77.0007 27.4008 76.4072C23.5756 75.8138 20.4703 71.0002 21.739 64.6447C23.0078 58.2892 27.7909 54.6994 31.616 55.2928C35.4412 55.8862 38.5466 60.6999 37.2778 67.0554Z" fill="#FF8A00" stroke="#FF8A00" stroke-width="4.25668"/>
<mask id="path-6-inside-2_1501_10742" fill="white">
<path fill-rule="evenodd" clip-rule="evenodd" d="M69.6883 82.8936C71.667 79.9338 73.1895 76.3194 73.9878 72.3205C76.2771 60.8535 71.7449 50.5667 63.865 49.3442C55.985 48.1217 47.7413 56.4265 45.452 67.8935C43.1628 79.3604 47.695 89.6473 55.5749 90.8697C56.3519 90.9903 57.1324 91.0182 57.9104 90.9596C58.324 92.0528 59.0133 93.0741 59.9728 93.9218C63.1068 96.6903 67.9362 96.5585 70.7597 93.6274C73.5832 90.6963 73.3315 86.0759 70.1976 83.3074C70.0324 83.1614 69.8624 83.0235 69.6883 82.8936Z"/>
</mask>
<path fill-rule="evenodd" clip-rule="evenodd" d="M69.6883 82.8936C71.667 79.9338 73.1895 76.3194 73.9878 72.3205C76.2771 60.8535 71.7449 50.5667 63.865 49.3442C55.985 48.1217 47.7413 56.4265 45.452 67.8935C43.1628 79.3604 47.695 89.6473 55.5749 90.8697C56.3519 90.9903 57.1324 91.0182 57.9104 90.9596C58.324 92.0528 59.0133 93.0741 59.9728 93.9218C63.1068 96.6903 67.9362 96.5585 70.7597 93.6274C73.5832 90.6963 73.3315 86.0759 70.1976 83.3074C70.0324 83.1614 69.8624 83.0235 69.6883 82.8936Z" fill="white"/>
<path d="M73.9878 72.3205L78.1891 72.9876L73.9878 72.3205ZM69.6883 82.8936L66.1407 80.6566L63.9161 83.9843L67.0263 86.3039L69.6883 82.8936ZM63.865 49.3442L64.6839 45.1648L63.865 49.3442ZM45.452 67.8935L41.2508 67.2263L45.452 67.8935ZM55.5749 90.8697L56.3938 86.6903L56.3938 86.6903L55.5749 90.8697ZM57.9104 90.9596L61.9297 89.3499L60.8544 86.5076L57.7445 86.7419L57.9104 90.9596ZM59.9728 93.9218L57.0514 97.1213L57.0514 97.1213L59.9728 93.9218ZM70.1976 83.3074L67.2761 86.5069L67.2762 86.5069L70.1976 83.3074ZM69.7866 71.6533C69.0935 75.1251 67.7825 78.2008 66.1407 80.6566L73.2359 85.1306C75.5515 81.6668 77.2855 77.5138 78.1891 72.9876L69.7866 71.6533ZM63.0461 53.5236C65.1869 53.8558 67.3428 55.4876 68.8019 58.7993C70.2516 62.0897 70.7856 66.6496 69.7866 71.6533L78.1891 72.9876C79.4794 66.5244 78.8919 60.2074 76.6778 55.182C74.4731 50.1779 70.4229 46.0551 64.6839 45.1648L63.0461 53.5236ZM49.6532 68.5606C50.6521 63.5573 52.921 59.4266 55.5649 56.7631C58.2284 54.0798 60.8998 53.1907 63.0461 53.5236L64.6839 45.1648C58.9502 44.2753 53.5597 46.9272 49.5591 50.9575C45.5388 55.0075 42.5412 60.7627 41.2508 67.2263L49.6532 68.5606ZM56.3938 86.6903C54.2529 86.3582 52.097 84.7263 50.638 81.4146C49.1883 78.1243 48.6543 73.5643 49.6532 68.5606L41.2508 67.2263C39.9605 73.6896 40.548 80.0066 42.7621 85.032C44.9668 90.0361 49.0169 94.1588 54.756 95.0492L56.3938 86.6903ZM57.7445 86.7419C57.2903 86.7761 56.8404 86.7596 56.3938 86.6903L54.756 95.0492C55.8633 95.221 56.9745 95.2603 58.0762 95.1773L57.7445 86.7419ZM62.8943 90.7223C62.4243 90.307 62.1114 89.8301 61.9297 89.3499L53.891 92.5692C54.5366 94.2756 55.6023 95.8411 57.0514 97.1213L62.8943 90.7223ZM67.7096 90.7729C66.6844 91.8371 64.5149 92.1539 62.8943 90.7223L57.0514 97.1213C61.6986 101.227 69.188 101.28 73.8098 96.4819L67.7096 90.7729ZM67.2762 86.5069C68.8448 87.8927 68.655 89.7914 67.7096 90.7729L73.8098 96.4819C78.5113 91.6012 77.8182 84.2592 73.1191 80.1079L67.2762 86.5069ZM67.0263 86.3039C67.1113 86.3673 67.1947 86.4349 67.2761 86.5069L73.1191 80.1079C72.87 79.8879 72.6135 79.6797 72.3502 79.4833L67.0263 86.3039Z" fill="#FF8A00" mask="url(#path-6-inside-2_1501_10742)"/>
<path d="M37.5089 48.9103C34.5218 48.1671 31.221 49.2278 28.2549 52.0358C25.6401 54.5111 23.4285 58.2365 22.1968 62.7748L44.3971 55.4966C42.7981 51.92 40.3337 49.6133 37.5089 48.9103Z" fill="white" stroke="#FF8A00" stroke-width="4.25668"/>
<path d="M63.3976 70.7557C62.1397 77.0565 57.274 80.6898 53.2637 80.0677C49.2535 79.4456 46.0872 74.5661 47.3451 68.2653C48.6029 61.9645 53.4687 58.3311 57.479 58.9533C61.4892 59.5754 64.6555 64.4548 63.3976 70.7557Z" fill="#FF8A00" stroke="#FF8A00" stroke-width="4.25668"/>
<path d="M63.4483 51.4332C66.4901 51.9051 69.1222 54.1616 70.769 57.8994C72.4108 61.6257 72.9578 66.6263 71.8861 71.9948C71.8577 72.1371 71.784 72.443 71.6872 72.8301L52.6694 56.7383C53.9599 55.125 55.6146 53.794 57.3634 52.8551C59.6446 51.6304 61.8636 51.1873 63.4483 51.4332Z" fill="white" stroke="#FF8A00" stroke-width="4.25668"/>
<path d="M53.3707 99.3833C50.1859 92.7098 41.023 87.7321 29.2495 95.6113" stroke="#FF8A00" stroke-width="4.25668" stroke-linecap="round"/>
<path fill-rule="evenodd" clip-rule="evenodd" d="M51.5316 2L35.4047 13.0765L45.0585 21.4941L33.507 28.3315L46.6069 41.5857L59.4098 34.0076L70.1092 43.3368L86.2362 32.2603L76.5826 23.843L88.1344 17.0054L75.0345 3.75121L62.2313 11.3295L51.5316 2Z" fill="#FF8A00"/>
<path d="M35.4047 13.0765L34.4005 11.6145C33.9486 11.925 33.6656 12.427 33.634 12.9744C33.6024 13.5218 33.8258 14.053 34.239 14.4133L35.4047 13.0765ZM51.5316 2L52.6972 0.663192C52.0872 0.131321 51.1946 0.0798202 50.5275 0.538012L51.5316 2ZM45.0585 21.4941L45.962 23.0204C46.4519 22.7304 46.7728 22.2228 46.8248 21.6559C46.8767 21.0889 46.6533 20.5315 46.2242 20.1573L45.0585 21.4941ZM33.507 28.3315L32.6036 26.8052C32.1336 27.0834 31.8179 27.5627 31.748 28.1044C31.6781 28.6461 31.8616 29.1898 32.2456 29.5783L33.507 28.3315ZM46.6069 41.5857L45.3454 42.8325C45.9174 43.4113 46.81 43.5265 47.5103 43.112L46.6069 41.5857ZM59.4098 34.0076L60.5754 32.6708C59.9988 32.168 59.1648 32.0916 58.5064 32.4813L59.4098 34.0076ZM70.1092 43.3368L68.9436 44.6736C69.5536 45.2055 70.4463 45.257 71.1134 44.7988L70.1092 43.3368ZM86.2362 32.2603L87.2403 33.7223C87.6923 33.4118 87.9753 32.9098 88.0068 32.3624C88.0384 31.815 87.8151 31.2838 87.4018 30.9235L86.2362 32.2603ZM76.5826 23.843L75.6792 22.3167C75.1892 22.6067 74.8683 23.1142 74.8164 23.6812C74.7644 24.2482 74.9879 24.8056 75.417 25.1798L76.5826 23.843ZM88.1344 17.0054L89.0378 18.5317C89.5078 18.2535 89.8235 17.7742 89.8934 17.2325C89.9633 16.6908 89.7798 16.1471 89.3958 15.7586L88.1344 17.0054ZM75.0345 3.75121L76.296 2.50444C75.724 1.92565 74.8314 1.81041 74.1311 2.22492L75.0345 3.75121ZM62.2313 11.3295L61.0657 12.6663C61.6423 13.1691 62.4764 13.2455 63.1347 12.8558L62.2313 11.3295ZM36.4088 14.5385L52.5357 3.46199L50.5275 0.538012L34.4005 11.6145L36.4088 14.5385ZM46.2242 20.1573L36.5703 11.7397L34.239 14.4133L43.8929 22.8309L46.2242 20.1573ZM34.4104 29.8578L45.962 23.0204L44.1551 19.9678L32.6036 26.8052L34.4104 29.8578ZM47.8683 40.3389L34.7685 27.0847L32.2456 29.5783L45.3454 42.8325L47.8683 40.3389ZM58.5064 32.4813L45.7034 40.0594L47.5103 43.112L60.3132 35.5339L58.5064 32.4813ZM71.2749 42L60.5754 32.6708L58.2442 35.3444L68.9436 44.6736L71.2749 42ZM85.232 30.7983L69.1051 41.8748L71.1134 44.7988L87.2403 33.7223L85.232 30.7983ZM75.417 25.1798L85.0706 33.5971L87.4018 30.9235L77.7482 22.5061L75.417 25.1798ZM87.231 15.4791L75.6792 22.3167L77.486 25.3692L89.0378 18.5317L87.231 15.4791ZM73.7731 4.99798L86.8729 18.2522L89.3958 15.7586L76.296 2.50444L73.7731 4.99798ZM63.1347 12.8558L75.938 5.2775L74.1311 2.22492L61.3279 9.80321L63.1347 12.8558ZM50.366 3.33681L61.0657 12.6663L63.3969 9.99269L52.6972 0.663192L50.366 3.33681Z" fill="#FF8A00"/>
<defs>
<linearGradient id="paint0_linear_1501_10742" x1="38.1689" y1="116.608" x2="164.805" y2="273.041" gradientUnits="userSpaceOnUse">
<stop offset="0.0833333" stop-color="white"/>
<stop offset="1" stop-color="#E5E20A"/>
</linearGradient>
</defs>
</svg>
